<svg width="1105" height="649" viewBox="0 0 1105 649" fill="none" xmlns="http://www.w3.org/2000/svg">
<path d="M254.5 501.5H849.5V531.5H254.5V501.5Z" stroke="white" stroke-width="5"/>
<path d="M254.5 276.5H849.5V306.5H254.5V276.5Z" stroke="white" stroke-width="5"/>
<rect x="104.5" y="306.5" width="895" height="195" stroke="white" stroke-width="5"/>
<path d="M172.685 438V374.244H211.601V381.88H181.609V400.832H208.289V408.284H181.609V430.364H213.901V438H172.685ZM253.856 429.168C253.243 427.696 252.415 425.825 251.372 423.556C250.391 421.287 249.317 418.833 248.152 416.196C246.987 413.559 245.729 410.86 244.38 408.1C243.092 405.279 241.865 402.641 240.7 400.188C239.535 397.673 238.431 395.435 237.388 393.472C236.407 391.509 235.609 390.007 234.996 388.964C234.321 396.201 233.769 404.052 233.34 412.516C232.911 420.919 232.543 429.413 232.236 438H223.496C223.741 432.48 224.017 426.929 224.324 421.348C224.631 415.705 224.968 410.185 225.336 404.788C225.765 399.329 226.195 394.024 226.624 388.872C227.115 383.72 227.636 378.844 228.188 374.244H236.008C237.664 376.943 239.443 380.132 241.344 383.812C243.245 387.492 245.147 391.356 247.048 395.404C248.949 399.391 250.789 403.408 252.568 407.456C254.347 411.443 255.972 415.092 257.444 418.404C258.916 415.092 260.541 411.443 262.32 407.456C264.099 403.408 265.939 399.391 267.84 395.404C269.741 391.356 271.643 387.492 273.544 383.812C275.445 380.132 277.224 376.943 278.88 374.244H286.7C288.785 394.791 290.349 416.043 291.392 438H282.652C282.345 429.413 281.977 420.919 281.548 412.516C281.119 404.052 280.567 396.201 279.892 388.964C279.279 390.007 278.451 391.509 277.408 393.472C276.427 395.435 275.353 397.673 274.188 400.188C273.023 402.641 271.765 405.279 270.416 408.1C269.128 410.86 267.901 413.559 266.736 416.196C265.571 418.833 264.467 421.287 263.424 423.556C262.443 425.825 261.645 427.696 261.032 429.168H253.856ZM322.313 373.6C331.267 373.6 338.137 375.317 342.921 378.752C347.766 382.125 350.189 387.185 350.189 393.932C350.189 397.612 349.514 400.771 348.165 403.408C346.877 405.984 344.975 408.1 342.461 409.756C340.007 411.351 337.002 412.516 333.445 413.252C329.887 413.988 325.87 414.356 321.393 414.356H314.309V438H305.385V375.164C307.899 374.551 310.69 374.152 313.757 373.968C316.885 373.723 319.737 373.6 322.313 373.6ZM323.049 381.42C319.246 381.42 316.333 381.512 314.309 381.696V406.72H321.025C324.091 406.72 326.851 406.536 329.305 406.168C331.758 405.739 333.813 405.064 335.469 404.144C337.186 403.163 338.505 401.844 339.425 400.188C340.345 398.532 340.805 396.416 340.805 393.84C340.805 391.387 340.314 389.363 339.333 387.768C338.413 386.173 337.125 384.916 335.469 383.996C333.874 383.015 332.003 382.34 329.857 381.972C327.71 381.604 325.441 381.42 323.049 381.42ZM361.357 374.244H370.281V438H361.357V374.244ZM417.252 411.32C418.234 412.547 419.46 414.172 420.932 416.196C422.466 418.159 424.03 420.367 425.624 422.82C427.219 425.212 428.783 427.727 430.316 430.364C431.911 433.001 433.26 435.547 434.364 438H424.612C423.386 435.669 422.036 433.308 420.564 430.916C419.154 428.524 417.712 426.255 416.24 424.108C414.768 421.9 413.296 419.845 411.824 417.944C410.414 416.043 409.126 414.387 407.96 412.976C407.163 413.037 406.335 413.068 405.476 413.068C404.679 413.068 403.851 413.068 402.992 413.068H394.988V438H386.064V375.164C388.579 374.551 391.37 374.152 394.436 373.968C397.564 373.723 400.416 373.6 402.992 373.6C411.947 373.6 418.755 375.287 423.416 378.66C428.139 382.033 430.5 387.063 430.5 393.748C430.5 397.98 429.366 401.599 427.096 404.604C424.888 407.609 421.607 409.848 417.252 411.32ZM403.728 381.42C399.926 381.42 397.012 381.512 394.988 381.696V405.708H401.336C404.403 405.708 407.163 405.555 409.616 405.248C412.07 404.941 414.124 404.359 415.78 403.5C417.498 402.641 418.816 401.445 419.736 399.912C420.656 398.317 421.116 396.232 421.116 393.656C421.116 391.264 420.656 389.271 419.736 387.676C418.816 386.081 417.559 384.824 415.964 383.904C414.431 382.984 412.591 382.34 410.444 381.972C408.359 381.604 406.12 381.42 403.728 381.42ZM443.924 438V374.244H482.84V381.88H452.848V400.832H479.528V408.284H452.848V430.364H485.14V438H443.924ZM490.962 406.444H513.686V414.448H490.962V406.444ZM558.843 394.76C556.267 402.979 553.66 410.584 551.023 417.576C548.385 424.568 545.748 431.376 543.11 438H534.187C530.936 428.616 528.053 418.711 525.539 408.284C523.085 397.857 520.785 386.511 518.639 374.244H528.023C528.881 379.028 529.771 383.812 530.691 388.596C531.611 393.38 532.561 398.041 533.543 402.58C534.524 407.057 535.505 411.351 536.487 415.46C537.468 419.569 538.48 423.372 539.523 426.868C541.976 420.428 544.583 413.375 547.343 405.708C550.103 397.98 552.679 390.007 555.071 381.788H562.799C565.191 390.007 567.797 397.98 570.619 405.708C573.44 413.375 576.077 420.428 578.531 426.868C579.512 423.433 580.493 419.661 581.475 415.552C582.456 411.443 583.407 407.149 584.327 402.672C585.308 398.133 586.259 393.472 587.179 388.688C588.099 383.843 588.988 379.028 589.847 374.244H598.955C596.747 386.511 594.385 397.857 591.871 408.284C589.417 418.711 586.596 428.616 583.407 438H574.483C571.784 431.376 569.147 424.568 566.571 417.576C563.995 410.584 561.419 402.979 558.843 394.76ZM609.416 438V374.244H648.332V381.88H618.34V400.832H645.02V408.284H618.34V430.364H650.632V438H609.416ZM679.179 438.552C677.891 438.552 676.48 438.521 674.947 438.46C673.475 438.399 671.972 438.307 670.439 438.184C668.967 438.061 667.495 437.908 666.023 437.724C664.551 437.54 663.201 437.295 661.975 436.988V375.164C663.201 374.857 664.551 374.612 666.023 374.428C667.495 374.244 668.967 374.091 670.439 373.968C671.972 373.845 673.475 373.753 674.947 373.692C676.419 373.631 677.799 373.6 679.087 373.6C682.767 373.6 686.201 373.876 689.391 374.428C692.641 374.98 695.432 375.931 697.763 377.28C700.155 378.568 702.025 380.285 703.375 382.432C704.724 384.579 705.399 387.216 705.399 390.344C705.399 393.84 704.571 396.723 702.915 398.992C701.259 401.2 699.051 402.856 696.291 403.96C700.032 405.064 703.007 406.812 705.215 409.204C707.423 411.596 708.527 414.969 708.527 419.324C708.527 425.703 706.165 430.517 701.443 433.768C696.781 436.957 689.36 438.552 679.179 438.552ZM670.807 408.284V430.732C671.481 430.793 672.279 430.855 673.199 430.916C673.996 430.977 674.916 431.039 675.959 431.1C677.063 431.1 678.32 431.1 679.731 431.1C682.368 431.1 684.852 430.947 687.183 430.64C689.575 430.272 691.66 429.659 693.439 428.8C695.217 427.941 696.628 426.745 697.671 425.212C698.775 423.679 699.327 421.747 699.327 419.416C699.327 417.331 698.928 415.583 698.131 414.172C697.333 412.7 696.168 411.535 694.635 410.676C693.163 409.817 691.384 409.204 689.299 408.836C687.213 408.468 684.883 408.284 682.307 408.284H670.807ZM670.807 401.108H680.191C682.399 401.108 684.484 400.955 686.447 400.648C688.409 400.341 690.096 399.789 691.507 398.992C692.979 398.195 694.113 397.152 694.911 395.864C695.769 394.576 696.199 392.951 696.199 390.988C696.199 389.148 695.769 387.615 694.911 386.388C694.052 385.1 692.856 384.088 691.323 383.352C689.851 382.555 688.103 381.972 686.079 381.604C684.055 381.236 681.908 381.052 679.639 381.052C677.369 381.052 675.591 381.083 674.303 381.144C673.015 381.205 671.849 381.297 670.807 381.42V401.108ZM729.761 433.032C729.761 434.688 729.209 436.129 728.105 437.356C727.001 438.583 725.499 439.196 723.597 439.196C721.696 439.196 720.193 438.583 719.089 437.356C717.985 436.129 717.433 434.688 717.433 433.032C717.433 431.376 717.985 429.935 719.089 428.708C720.193 427.481 721.696 426.868 723.597 426.868C725.499 426.868 727.001 427.481 728.105 428.708C729.209 429.935 729.761 431.376 729.761 433.032ZM767.555 439.38C763.077 439.38 758.999 438.644 755.319 437.172C751.639 435.7 748.48 433.553 745.843 430.732C743.205 427.911 741.151 424.445 739.679 420.336C738.268 416.165 737.563 411.412 737.563 406.076C737.563 400.74 738.36 396.017 739.955 391.908C741.611 387.737 743.819 384.241 746.579 381.42C749.339 378.599 752.559 376.452 756.239 374.98C759.919 373.508 763.844 372.772 768.015 372.772C770.652 372.772 773.013 372.956 775.099 373.324C777.245 373.692 779.085 374.121 780.619 374.612C782.213 375.103 783.501 375.593 784.483 376.084C785.464 376.575 786.139 376.943 786.507 377.188L783.931 384.548C783.379 384.18 782.581 383.781 781.539 383.352C780.496 382.923 779.3 382.493 777.951 382.064C776.663 381.635 775.221 381.297 773.627 381.052C772.093 380.745 770.529 380.592 768.935 380.592C765.561 380.592 762.525 381.175 759.827 382.34C757.128 383.505 754.828 385.192 752.927 387.4C751.025 389.608 749.553 392.307 748.511 395.496C747.529 398.624 747.039 402.151 747.039 406.076C747.039 409.879 747.468 413.344 748.327 416.472C749.247 419.6 750.596 422.299 752.375 424.568C754.153 426.776 756.361 428.493 758.999 429.72C761.697 430.947 764.825 431.56 768.383 431.56C772.492 431.56 775.896 431.131 778.595 430.272C781.293 429.413 783.317 428.647 784.667 427.972L786.967 435.332C786.537 435.639 785.771 436.037 784.667 436.528C783.563 436.957 782.183 437.387 780.527 437.816C778.871 438.245 776.939 438.613 774.731 438.92C772.523 439.227 770.131 439.38 767.555 439.38ZM792.816 406.076C792.816 400.617 793.614 395.803 795.208 391.632C796.864 387.461 799.072 383.996 801.832 381.236C804.654 378.415 807.904 376.299 811.584 374.888C815.326 373.477 819.282 372.772 823.452 372.772C827.562 372.772 831.426 373.477 835.044 374.888C838.724 376.299 841.944 378.415 844.704 381.236C847.464 383.996 849.642 387.461 851.236 391.632C852.892 395.803 853.72 400.617 853.72 406.076C853.72 411.535 852.892 416.349 851.236 420.52C849.642 424.691 847.464 428.187 844.704 431.008C841.944 433.768 838.724 435.853 835.044 437.264C831.426 438.675 827.562 439.38 823.452 439.38C819.282 439.38 815.326 438.675 811.584 437.264C807.904 435.853 804.654 433.768 801.832 431.008C799.072 428.187 796.864 424.691 795.208 420.52C793.614 416.349 792.816 411.535 792.816 406.076ZM802.2 406.076C802.2 409.94 802.691 413.467 803.672 416.656C804.654 419.784 806.034 422.452 807.812 424.66C809.652 426.868 811.86 428.585 814.436 429.812C817.074 430.977 820.018 431.56 823.268 431.56C826.519 431.56 829.432 430.977 832.008 429.812C834.584 428.585 836.762 426.868 838.54 424.66C840.38 422.452 841.791 419.784 842.772 416.656C843.754 413.467 844.244 409.94 844.244 406.076C844.244 402.212 843.754 398.716 842.772 395.588C841.791 392.399 840.38 389.7 838.54 387.492C836.762 385.284 834.584 383.597 832.008 382.432C829.432 381.205 826.519 380.592 823.268 380.592C820.018 380.592 817.074 381.205 814.436 382.432C811.86 383.597 809.652 385.284 807.812 387.492C806.034 389.7 804.654 392.399 803.672 395.588C802.691 398.716 802.2 402.212 802.2 406.076ZM895.61 429.168C894.997 427.696 894.169 425.825 893.126 423.556C892.145 421.287 891.071 418.833 889.906 416.196C888.741 413.559 887.483 410.86 886.134 408.1C884.846 405.279 883.619 402.641 882.454 400.188C881.289 397.673 880.185 395.435 879.142 393.472C878.161 391.509 877.363 390.007 876.75 388.964C876.075 396.201 875.523 404.052 875.094 412.516C874.665 420.919 874.297 429.413 873.99 438H865.25C865.495 432.48 865.771 426.929 866.078 421.348C866.385 415.705 866.722 410.185 867.09 404.788C867.519 399.329 867.949 394.024 868.378 388.872C868.869 383.72 869.39 378.844 869.942 374.244H877.762C879.418 376.943 881.197 380.132 883.098 383.812C884.999 387.492 886.901 391.356 888.802 395.404C890.703 399.391 892.543 403.408 894.322 407.456C896.101 411.443 897.726 415.092 899.198 418.404C900.67 415.092 902.295 411.443 904.074 407.456C905.853 403.408 907.693 399.391 909.594 395.404C911.495 391.356 913.397 387.492 915.298 383.812C917.199 380.132 918.978 376.943 920.634 374.244H928.454C930.539 394.791 932.103 416.043 933.146 438H924.406C924.099 429.413 923.731 420.919 923.302 412.516C922.873 404.052 922.321 396.201 921.646 388.964C921.033 390.007 920.205 391.509 919.162 393.472C918.181 395.435 917.107 397.673 915.942 400.188C914.777 402.641 913.519 405.279 912.17 408.1C910.882 410.86 909.655 413.559 908.49 416.196C907.325 418.833 906.221 421.287 905.178 423.556C904.197 425.825 903.399 427.696 902.786 429.168H895.61Z" fill="white"/>
<path d="M411.5 144L546 41L679.5 144L631.5 245H459L411.5 144Z" stroke="white" stroke-width="8" stroke-linejoin="round"/>
<path d="M545.5 42L596 160L545.5 243.5L494.5 160L545.5 42Z" stroke="white" stroke-width="8" stroke-linejoin="round"/>
<path d="M781.5 122L717.5 245H630L623.5 158L781.5 122Z" stroke="white" stroke-width="8" stroke-linejoin="round"/>
<path d="M310 122.5L384 245H460.5L468 158.5L310 122.5Z" stroke="white" stroke-width="8" stroke-linejoin="round"/>
</svg>
